<?xml version="1.0" encoding="iso-8859-1"?>
<!-- Uploaded to: SVG Repo, www.svgrepo.com, Generator: SVG Repo Mixer Tools -->
<svg height="800px" width="800px" version="1.1" id="Capa_1" xmlns="http://www.w3.org/2000/svg" xmlns:xlink="http://www.w3.org/1999/xlink" 
	 viewBox="0 0 55.017 55.017" xml:space="preserve">
<g>
	<path style="fill:grey;" d="M39.685,2.11c0,0,0.105-1.494-1.062-1.678c-0.308-0.049-0.606,0.093-0.847,0.356
		c0,0.001-0.646,0.407-1.064-0.169c-0.011-0.013-0.021-0.026-0.029-0.038c-0.146-0.305-0.385-0.519-0.68-0.565
		c-1.17-0.186-1.529,1.268-1.529,1.268l-0.451,1.875l5.515,0.875L39.685,2.11z M30.556,4.535l11.85,1.879
		c0.22,0.034,0.425-0.115,0.459-0.333l-3.284-1.542l-5.733-0.91l-3.619,0.447C30.186,4.296,30.337,4.5,30.556,4.535z M46.522,26.291
		c-0.818-3.609-0.463-7.375-1.658-10.933c-0.34-1.835-2.271-3.034-4.986-3.812L35.44,15.92l0.564-2.037L33.91,13.58l-0.048,2.573
		l-2.771-5.831c-4.92-0.241-9.983-0.014-13.024,0.119V8.407h-0.604L17.7,7.898l-0.366-0.171l-0.317,0.68H9.451V7.834H8.967v0.573
		H8.421l0.646,2.398h5.477c-2.056,1.072-1.662,4.878,1.2,4.878c2.821,0,9.516,0,12.336,0c0.004,0.091,0.001,0.183,0.01,0.276
		c0.272,3.351-0.048,8.79-0.27,11.585l3.82,0.671l-0.149,0.902l-3.808-0.67c-3.003,7.343-4.177,15.689-4.775,23.545
		c-0.292,3.861,5.71,3.832,6.002,0c0.436-5.754,1.265-11.75,2.949-17.375c0.336,0.096,0.688,0.166,1.05,0.199
		c0.128,0.013,0.253,0.015,0.38,0.019c0.452,5.933,0.861,12.42,1.666,18.005c0.549,3.816,6.33,2.188,5.787-1.596
		c-0.898-6.25-1.205-13.868-1.758-20.154c-0.01-0.126-0.026-0.246-0.051-0.361c0.026-0.095,0.047-0.189,0.069-0.287l-3.51-0.617
		l0.151-0.902l3.504,0.616c0.091-0.986,0.697-8.047,0.435-13.337c0.433,0.638,0.663,1.632,0.907,2.848
		c0.568,2.84,0.41,5.787,1.053,8.617C42.278,30.911,47.257,29.533,46.522,26.291z M33.781,21.162c0.379,0,0.684,0.305,0.684,0.682
		c0,0.378-0.305,0.684-0.684,0.684c-0.377,0-0.685-0.306-0.685-0.684C33.099,21.467,33.403,21.162,33.781,21.162z M33.63,23.724
		c0.378,0,0.684,0.305,0.684,0.683s-0.306,0.684-0.684,0.684c-0.377,0-0.684-0.306-0.684-0.684
		C32.946,24.029,33.253,23.724,33.63,23.724z M34.895,29.484l-2.738-0.461l0.115-0.693l2.735,0.479L34.895,29.484z M38.31,7.321
		l0.347,0.056l0.137-0.88L31.977,5.33l-0.14,0.88l0.347,0.053c-0.16,0.997,0.521,1.933,1.518,2.09
		c0.996,0.157,1.933-0.521,2.09-1.518l0.934,0.148L38.31,7.321z M36.19,12.611l-2.096-0.304l0.232-1.597l2.096,0.304L36.19,12.611z"
		/>
</g>
</svg>