<?xml version="1.0" encoding="utf-8"?>

<!DOCTYPE svg PUBLIC "-//W3C//DTD SVG 1.1//EN" "http://www.w3.org/Graphics/SVG/1.1/DTD/svg11.dtd">
<!-- Uploaded to: SVG Repo, www.svgrepo.com, Generator: SVG Repo Mixer Tools -->
<svg fill="#000000" version="1.1" id="Layer_1" xmlns="http://www.w3.org/2000/svg" xmlns:xlink="http://www.w3.org/1999/xlink" 
	 width="800px" height="800px" viewBox="0 0 48 48" enable-background="new 0 0 48 48" xml:space="preserve">
<g>
	<path d="M24,48C13.023,48,5,28.927,5,19C5,8.523,13.523,0,24,0c10.477,0,19,8.523,19,19C43,28.927,34.977,48,24,48z M24,2
		C14.626,2,7,9.626,7,19c0,9.124,7.696,27,17,27c9.303,0,17-17.876,17-27C41,9.626,33.375,2,24,2z"/>
	<path d="M8,31c-0.124,0-0.249-0.023-0.371-0.072C2.218,28.764,1,20.666,1,18c0-2.458,0-5,2-5c1.414,0,2.58,1.166,3.707,2.293
		c0.391,0.391,0.391,1.023,0,1.414c-0.392,0.391-1.023,0.391-1.414,0c-0.683-0.682-1.514-1.513-2.101-1.678C3,15.583,3,17.073,3,18
		c0,1.771,0.956,9.305,5.372,11.071c0.513,0.206,0.762,0.786,0.557,1.3C8.772,30.762,8.396,31,8,31z"/>
	<path d="M40,31c-0.397,0-0.772-0.238-0.93-0.629c-0.204-0.514,0.045-1.096,0.558-1.3C44.044,27.305,45,19.771,45,18
		c0-0.927,0-2.417-0.193-2.971c-0.587,0.165-1.418,0.996-2.1,1.678c-0.392,0.391-1.023,0.391-1.414,0
		c-0.392-0.391-0.392-1.023,0-1.414C42.42,14.166,43.586,13,45,13c2,0,2,2.542,2,5c0,2.666-1.218,10.764-6.628,12.929
		C40.25,30.977,40.125,31,40,31z"/>
	<path d="M42,17c-0.467,0-0.886-0.329-0.979-0.804c-0.778-3.896-7.56-6.564-10.95-7.098c-0.006,1.827-0.614,3.248-1.814,4.232
		c-3.179,2.606-9.748,1.147-13.837-0.144C12.831,15.208,9.143,17,7,17c-0.552,0-1-0.448-1-1s0.448-1,1-1
		c1.729,0,5.307-1.849,6.104-3.447c0.224-0.445,0.739-0.657,1.211-0.501c6.037,2.013,10.773,2.287,12.67,0.732
		c0.902-0.74,1.237-1.937,1.021-3.659C27.971,7.84,28.06,7.554,28.25,7.339C28.44,7.123,28.713,7,29,7
		c3.141,0,12.825,3.027,13.979,8.804c0.108,0.542-0.243,1.068-0.784,1.177C42.13,16.994,42.064,17,42,17z"/>
	<g>
		<path d="M18,28c-2.206,0-4-1.794-4-4c0-0.48,0.089-0.955,0.26-1.401c-0.643-0.226-1.227-0.465-1.707-0.705
			c-0.494-0.247-0.694-0.848-0.447-1.342c0.247-0.494,0.847-0.695,1.343-0.447c0.66,0.331,1.586,0.668,2.584,0.965
			c0.005,0.001,0.009,0.003,0.014,0.004C17.824,21.602,19.832,22,21,22c0.552,0,1,0.448,1,1v1C22,26.206,20.207,28,18,28z
			 M16.177,23.191C16.075,23.415,16,23.685,16,24c0,1.104,0.896,2,2,2c1.103,0,2-0.896,2-2v-0.058
			C18.887,23.828,17.508,23.551,16.177,23.191z"/>
	</g>
	<g>
		<path d="M30,28c-2.206,0-4-1.794-4-4v-1c0-0.552,0.448-1,1-1c1.169,0,3.178-0.398,4.956-0.926
			c0.004-0.001,0.008-0.002,0.012-0.003c0.999-0.297,1.923-0.634,2.585-0.965c0.496-0.248,1.095-0.046,1.342,0.447
			c0.247,0.494,0.047,1.095-0.446,1.342c-0.48,0.24-1.064,0.479-1.707,0.705c0.17,0.446,0.26,0.92,0.26,1.401
			C34,26.206,32.207,28,30,28z M28,23.942V24c0,1.104,0.896,2,2,2c1.103,0,2-0.896,2-2c0-0.315-0.074-0.585-0.177-0.809
			C30.493,23.551,29.113,23.828,28,23.942z"/>
	</g>
	<path d="M21,40c-0.552,0-1-0.448-1-1v-2c0-0.552,0.448-1,1-1s1,0.448,1,1v2C22,39.552,21.552,40,21,40z"/>
	<path d="M27,40c-0.552,0-1-0.448-1-1v-2c0-0.552,0.448-1,1-1s1,0.448,1,1v2C28,39.552,27.552,40,27,40z"/>
	<path d="M24,48C8.602,48,5.043,40.461,2.688,35.473C1.92,33.848,1.258,32.443,0.4,31.8c-0.344-0.258-0.484-0.708-0.349-1.116
		S0.569,30,1,30c3.389,0,7.597,2.184,9.707,4.293c0.391,0.391,0.391,1.023,0,1.414c-0.392,0.391-1.023,0.391-1.414,0
		c-1.311-1.311-3.673-2.688-5.921-3.332c0.385,0.678,0.744,1.438,1.125,2.244C6.764,39.422,9.871,46,24,46c0.552,0,1,0.448,1,1
		S24.552,48,24,48z"/>
	<path d="M24,48c-0.552,0-1-0.448-1-1s0.448-1,1-1c14.13,0,17.235-6.578,19.503-11.381c0.381-0.807,0.739-1.565,1.125-2.244
		c-2.248,0.646-4.611,2.021-5.921,3.332c-0.392,0.391-1.023,0.391-1.414,0c-0.392-0.391-0.392-1.023,0-1.414
		C39.403,32.184,43.611,30,47,30c0.431,0,0.813,0.275,0.949,0.684c0.136,0.409-0.005,0.858-0.35,1.116
		c-0.857,0.644-1.521,2.048-2.288,3.673C42.958,40.461,39.398,48,24,48z"/>
	<path d="M24,38c-3,0-4.517-1.102-5.707-2.293c-0.392-0.391-0.392-1.023,0-1.414c0.391-0.391,1.022-0.391,1.414,0
		C20.607,35.191,21.612,36,24,36c2.388,0,3.393-0.809,4.293-1.707c0.391-0.391,1.022-0.391,1.414,0c0.391,0.391,0.391,1.023,0,1.414
		C28.516,36.898,27,38,24,38z"/>
</g>
</svg>