<?xml version="1.0" encoding="utf-8"?>

<!-- Uploaded to: SVG Repo, www.svgrepo.com, Generator: SVG Repo Mixer Tools -->
<svg fill="#000000" height="800px" width="800px" version="1.1" id="Icons" xmlns="http://www.w3.org/2000/svg" xmlns:xlink="http://www.w3.org/1999/xlink" 
	 viewBox="0 0 32 32" xml:space="preserve">
<path d="M29,14h-2.2c-0.2-1.3-0.6-2.5-1.3-3.7c-0.7-1.3-0.5-3,0.6-4.1c0.4-0.4,0.4-1,0-1.4c-2-2-5.2-2-7.3-0.1
	C17.7,4.2,16.4,4,15.1,4c-0.3,0-0.7,0.2-0.9,0.5s-0.2,0.7,0,1l3.4,6.5h-1.8c-0.5,0-0.9,0.2-1.2,0.7c-0.3,0.4-0.3,0.9-0.1,1.3
	l2.1,4.5l-5.8-4.6c0.3-0.1,0.6-0.3,0.8-0.6c0.3-0.4,0.3-0.9,0.1-1.4l-2.6-5C8.9,6.7,8.7,6.5,8.4,6.4c-0.3-0.1-0.6,0-0.8,0.2
	C6.6,7.4,5.9,8.2,5.2,9c-1.5,2-2.2,4.5-2.2,7c0,2.2,0.6,4.3,1.7,6.1l0.1,0.2c-0.1,0.1-0.2,0.1-0.3,0.1C4.2,22.5,4,22.3,4,22
	c0-0.6-0.4-1-1-1s-1,0.4-1,1c0,1.4,1.1,2.5,2.5,2.5c0.5,0,1-0.2,1.4-0.4l3.3,5.4C9.3,29.8,9.6,30,10,30h4c0.3,0,0.6-0.1,0.8-0.4
	c0.2-0.2,0.3-0.5,0.2-0.8L14.8,28c0.4,0,0.9,0,1.3,0L16,28.8c0,0.3,0,0.6,0.2,0.8S16.7,30,17,30h4c0.3,0,0.7-0.2,0.8-0.5l2-3.1
	c2.4-0.9,4.5-2.2,5.9-3.7c0.2-0.2,0.3-0.4,0.3-0.7V15C30,14.4,29.6,14,29,14z"/>
</svg>