<?xml version="1.0" encoding="iso-8859-1"?>
<!-- Uploaded to: SVG Repo, www.svgrepo.com, Generator: SVG Repo Mixer Tools -->
<svg fill="grey" height="800px" width="800px" version="1.1" id="Layer_1" xmlns="http://www.w3.org/2000/svg" xmlns:xlink="http://www.w3.org/1999/xlink" 
	 viewBox="0 0 512 512" xml:space="preserve">
<g>
	<g>
		<path d="M302.97,0c-17.268,0-33.466,7.562-44.573,20.315C247.288,7.562,231.09,0,213.822,0c-32.613,0-59.145,26.533-59.145,59.145
			c-0.001,75.391,95.742,128.288,99.817,130.502c1.217,0.661,2.559,0.991,3.901,0.991s2.684-0.33,3.901-0.991
			c4.075-2.215,99.817-55.111,99.817-130.501C362.115,26.533,335.582,0,302.97,0z M258.397,173.019
			c-17.454-10.487-87.379-56.121-87.379-113.874c-0.001-23.602,19.201-42.804,42.804-42.804c15.531,0,29.874,8.465,37.428,22.094
			c1.44,2.597,4.176,4.209,7.146,4.209c2.971,0,5.706-1.611,7.146-4.209c7.554-13.629,21.895-22.094,37.427-22.094
			c23.602,0,42.804,19.202,42.804,42.804C345.774,116.898,275.85,162.532,258.397,173.019z"/>
	</g>
</g>
<g>
	<g>
		<path d="M142.162,154.689c-45.051,0-81.702,36.652-81.702,81.702v21.787c0,45.051,36.652,81.702,81.702,81.702
			c45.051,0,81.702-36.652,81.702-81.702v-21.787C223.864,191.341,187.212,154.689,142.162,154.689z M207.523,258.179
			c0,36.04-29.321,65.362-65.362,65.362c-36.04,0-65.362-29.321-65.362-65.362v-21.787c0-36.04,29.321-65.362,65.362-65.362
			c36.04,0,65.362,29.321,65.362,65.362V258.179z"/>
	</g>
</g>
<g>
	<g>
		<path d="M123.923,228.077h-18.519c-4.512,0-8.17,3.658-8.17,8.17s3.658,8.17,8.17,8.17h10.814
			c1.121,3.173,4.148,5.447,7.705,5.447c4.512,0,8.17-3.658,8.17-8.17v-5.447C132.093,231.736,128.435,228.077,123.923,228.077z"/>
	</g>
</g>
<g>
	<g>
		<path d="M178.92,228.077h-18.519c-4.512,0-8.17,3.658-8.17,8.17v5.447c0,4.512,3.658,8.17,8.17,8.17
			c3.558,0,6.584-2.274,7.705-5.447h10.814c4.512,0,8.17-3.658,8.17-8.17S183.432,228.077,178.92,228.077z"/>
	</g>
</g>
<g>
	<g>
		<path d="M369.838,154.689c-45.051,0-81.702,36.652-81.702,81.702v21.787c0,45.051,36.652,81.702,81.702,81.702
			c45.051,0,81.702-36.652,81.702-81.702v-21.787C451.54,191.341,414.889,154.689,369.838,154.689z M435.2,258.179
			c0,36.04-29.321,65.362-65.362,65.362c-36.04,0-65.362-29.321-65.362-65.362v-21.787c0-36.04,29.321-65.362,65.362-65.362
			c36.04,0,65.362,29.321,65.362,65.362V258.179z"/>
	</g>
</g>
<g>
	<g>
		<path d="M351.599,228.077H333.08c-4.512,0-8.17,3.658-8.17,8.17s3.658,8.17,8.17,8.17h10.814c1.121,3.173,4.148,5.447,7.705,5.447
			c4.512,0,8.17-3.658,8.17-8.17v-5.447C359.769,231.736,356.111,228.077,351.599,228.077z"/>
	</g>
</g>
<g>
	<g>
		<path d="M406.597,228.077h-18.519c-4.512,0-8.17,3.658-8.17,8.17v5.447c0,4.512,3.658,8.17,8.17,8.17
			c3.558,0,6.584-2.274,7.705-5.447h10.814c4.512,0,8.17-3.658,8.17-8.17S411.109,228.077,406.597,228.077z"/>
	</g>
</g>
<g>
	<g>
		<path d="M199.949,373.955c-0.709-0.458-1.501-0.809-2.356-1.033c-17.042-7.243-35.777-11.254-55.431-11.254
			c-19.862,0-38.784,4.101-55.97,11.491c-0.474,0.16-0.927,0.356-1.353,0.593C34.921,395.835,0,445.828,0,503.83
			c0,4.512,3.658,8.17,8.17,8.17s8.17-3.658,8.17-8.17c0-48.301,27.363-90.324,67.396-111.405
			c9.192,23.709,32.332,40.052,58.426,40.052c26.104,0,49.237-16.338,58.427-40.052c40.033,21.081,67.394,63.105,67.394,111.405
			c0,4.512,3.658,8.17,8.17,8.17s8.17-3.658,8.17-8.17C284.323,446.006,249.62,396.143,199.949,373.955z M142.162,416.136
			c-19.576,0-36.9-12.438-43.48-30.38c13.557-5.008,28.204-7.748,43.48-7.748c15.276,0,29.923,2.739,43.48,7.748
			C179.063,403.701,161.746,416.136,142.162,416.136z"/>
	</g>
</g>
<g>
	<g>
		<path d="M427.626,373.955c-0.709-0.458-1.501-0.809-2.356-1.033c-17.042-7.243-35.777-11.254-55.431-11.254
			c-36.622,0-71.403,13.893-97.937,39.119c-3.27,3.109-3.401,8.28-0.292,11.551c3.109,3.27,8.282,3.401,11.551,0.292
			c8.536-8.116,18.04-14.898,28.233-20.254c9.18,23.736,32.333,40.102,58.445,40.102c26.104,0,49.237-16.338,58.427-40.052
			c40.033,21.081,67.394,63.105,67.394,111.405c0,4.512,3.658,8.17,8.17,8.17s8.17-3.658,8.17-8.17
			C512,446.006,477.296,396.143,427.626,373.955z M369.838,416.136c-19.587,0-36.92-12.453-43.491-30.411
			c13.77-5.067,28.454-7.717,43.491-7.717c15.276,0,29.923,2.739,43.48,7.748C406.739,403.701,389.423,416.136,369.838,416.136z"/>
	</g>
</g>
</svg>